<?xml version="1.0" encoding="utf-8"?>
<!-- Generator: Adobe Illustrator 26.0.0, SVG Export Plug-In . SVG Version: 6.00 Build 0)  -->
<svg version="1.1"
	 id="svg548" xmlns:inkscape="http://www.inkscape.org/namespaces/inkscape" xmlns:sodipodi="http://sodipodi.sourceforge.net/DTD/sodipodi-0.dtd"
	 xmlns="http://www.w3.org/2000/svg" xmlns:xlink="http://www.w3.org/1999/xlink" x="0px" y="0px" viewBox="0 0 78 68"
	 style="enable-background:new 0 0 78 68;" xml:space="preserve">
<style type="text/css">
	.st0{fill-rule:evenodd;clip-rule:evenodd;fill-opacity:0.25;}
	.st1{fill-rule:evenodd;clip-rule:evenodd;fill:#0000FF;stroke:#000000;stroke-width:10;stroke-linejoin:round;}
	.st2{fill-rule:evenodd;clip-rule:evenodd;fill:url(#path838_00000023240262136618084520000001768203232903284869_);}
</style>
<sodipodi:namedview  id="base" inkscape:cx="200.00000" inkscape:cy="201.15563" inkscape:window-height="500" inkscape:window-width="640" inkscape:window-x="387" inkscape:window-y="61" inkscape:zoom="0.90750000" showgrid="true">
	</sodipodi:namedview>
<g id="g836">
	<path id="path833" sodipodi:nodetypes="ccccccccccc" class="st0" d="M31,59.6c0.1,0,0.2,0,0.2-0.1c2.1-1-1.1-11.6-1.1-11.6
		s32.8,0.6,34.2-0.2c1.5-0.8,1.5-19.5,0-20.3c-1.5-0.8-34.2-0.2-34.2-0.2c0,0,3.2-10.7,1.1-11.6c-2.1-0.9-17.5,11.4-17.8,21.6h0
		c0,0.2,0,0.4,0,0.7C13.7,47.8,28.2,59.7,31,59.6z"/>
	<path id="path831" sodipodi:nodetypes="ccccccccccc" class="st1" d="M29.1,58.4c0.1,0,0.2,0,0.2-0.1c2.1-1-1.1-11.6-1.1-11.6
		c0,0,32.8,0.6,34.2-0.2c1.5-0.8,1.5-19.5,0-20.3c-1.5-0.8-34.2-0.2-34.2-0.2c0,0,3.2-10.7,1.1-11.6c-2.1-0.9-17.5,11.4-17.8,21.6h0
		c0,0.2,0,0.4,0,0.7C11.8,46.6,26.3,58.5,29.1,58.4z"/>
	
		<linearGradient id="path838_00000078741505536115965360000015246697484883310772_" gradientUnits="userSpaceOnUse" x1="-253.9041" y1="463.028" x2="-253.7869" y2="463.028" gradientTransform="matrix(215.1307 0 0 -362.5983 54634.7461 167929.5)">
		<stop  offset="0" style="stop-color:#FFFFFF;stop-opacity:0.4"/>
		<stop  offset="1" style="stop-color:#FFFFFF;stop-opacity:0.1"/>
	</linearGradient>
	
		<path id="path838" sodipodi:nodetypes="ccccccc" style="fill-rule:evenodd;clip-rule:evenodd;fill:url(#path838_00000078741505536115965360000015246697484883310772_);" d="
		M29.2,15.1C27.2,14.4,11.4,27,12.2,37.2S27.4,58,28.5,57.5c2.1-0.8-0.3-9-1.1-11.1c0.3-1-0.6-8.2,10-8.6C25.5,34,28.4,27,27.2,26.2
		C28.7,21.6,29.7,16.1,29.2,15.1z"/>
</g>
<rdf:RDF  xmlns="http://web.resource.org/cc/" xmlns:dc="http://purl.org/dc/elements/1.1/" xmlns:rdf="http://www.w3.org/1999/02/22-rdf-syntax-ns#">
	<Work  rdf:about="">
		<dc:title>Clipart by Nicu Buculei - arrow08_4</dc:title>
		<dc:rights>
			<Agent>
				<dc:title>Nicu Buculei</dc:title>
			</Agent>
		</dc:rights>
		<dc:type  rdf:resource="http://purl.org/dc/dcmitype/StillImage"></dc:type>
		<license  rdf:resource="http://web.resource.org/cc/PublicDomain"></license>
	</Work>
	<License  rdf:about="http://web.resource.org/cc/PublicDomain">
		<permits  rdf:resource="http://web.resource.org/cc/Reproduction"></permits>
		<permits  rdf:resource="http://web.resource.org/cc/Distribution"></permits>
		<permits  rdf:resource="http://web.resource.org/cc/DerivativeWorks"></permits>
	</License>
</rdf:RDF>
</svg>
