<?xml version="1.0" encoding="utf-8"?>
<!-- Generator: Adobe Illustrator 26.0.0, SVG Export Plug-In . SVG Version: 6.00 Build 0)  -->
<svg version="1.1"
	 id="svg548" xmlns:inkscape="http://www.inkscape.org/namespaces/inkscape" xmlns:sodipodi="http://sodipodi.sourceforge.net/DTD/sodipodi-0.dtd"
	 xmlns="http://www.w3.org/2000/svg" xmlns:xlink="http://www.w3.org/1999/xlink" x="0px" y="0px" viewBox="0 0 78 68"
	 style="enable-background:new 0 0 78 68;" xml:space="preserve">
<style type="text/css">
	.st0{fill-rule:evenodd;clip-rule:evenodd;fill-opacity:0.25;}
	.st1{fill-rule:evenodd;clip-rule:evenodd;fill:#0000FF;stroke:#000000;stroke-width:10;stroke-linejoin:round;}
	.st2{fill-rule:evenodd;clip-rule:evenodd;fill:url(#path838_00000042702318236121571940000018033364505744459197_);}
</style>
<sodipodi:namedview  id="base" inkscape:cx="200.00000" inkscape:cy="201.15563" inkscape:window-height="500" inkscape:window-width="640" inkscape:window-x="387" inkscape:window-y="61" inkscape:zoom="0.90750000" showgrid="true">
	</sodipodi:namedview>
<g id="g836">
	<path id="path833" sodipodi:nodetypes="ccccccccccc" class="st0" d="M16,29.1c0,0.1,0,0.2,0,0.2c0.9,2.1,11.6-0.9,11.6-0.9
		s-1.2,32.7-0.4,34.2c0.8,1.5,19.5,1.8,20.3,0.3c0.8-1.4,0.7-34.2,0.7-34.2c0,0,10.6,3.4,11.6,1.3c1-2-11.1-17.7-21.3-18.1l0,0
		c-0.2,0-0.4,0-0.7,0C28.1,12,16,26.3,16,29.1z"/>
	<path id="path831" sodipodi:nodetypes="ccccccccccc" class="st1" d="M17.3,27.3c0,0.1,0,0.2,0,0.2c0.9,2.1,11.6-0.9,11.6-0.9
		c0,0-1.2,32.7-0.4,34.2c0.8,1.5,19.5,1.8,20.3,0.3c0.8-1.4,0.7-34.2,0.7-34.2c0,0,10.6,3.4,11.6,1.3c1-2-11.1-17.7-21.3-18.1l0,0
		c-0.2,0-0.4,0-0.7,0C29.3,10.2,17.2,24.5,17.3,27.3z"/>
	
		<linearGradient id="path838_00000065789837394704306380000004026016460727153833_" gradientUnits="userSpaceOnUse" x1="-253.9041" y1="463.028" x2="-253.7869" y2="463.028" gradientTransform="matrix(-3.5014 215.1022 362.5503 5.9016 -168720.3594 51893.4102)">
		<stop  offset="0" style="stop-color:#FFFFFF;stop-opacity:0.4"/>
		<stop  offset="1" style="stop-color:#FFFFFF;stop-opacity:0.1"/>
	</linearGradient>
	
		<path id="path838" sodipodi:nodetypes="ccccccc" style="fill-rule:evenodd;clip-rule:evenodd;fill:url(#path838_00000065789837394704306380000004026016460727153833_);" d="
		M60.6,28c0.7-1.9-11.7-17.9-21.8-17.3s-21.1,14.8-20.6,16c0.8,2.1,9-0.2,11.2-0.9c1,0.3,8.2-0.5,8.4,10.1c4.1-11.9,11-8.9,11.8-10
		C54.1,27.4,59.6,28.5,60.6,28z"/>
</g>
<rdf:RDF  xmlns="http://web.resource.org/cc/" xmlns:dc="http://purl.org/dc/elements/1.1/" xmlns:rdf="http://www.w3.org/1999/02/22-rdf-syntax-ns#">
	<Work  rdf:about="">
		<dc:title>Clipart by Nicu Buculei - arrow08_4</dc:title>
		<dc:rights>
			<Agent>
				<dc:title>Nicu Buculei</dc:title>
			</Agent>
		</dc:rights>
		<dc:type  rdf:resource="http://purl.org/dc/dcmitype/StillImage"></dc:type>
		<license  rdf:resource="http://web.resource.org/cc/PublicDomain"></license>
	</Work>
	<License  rdf:about="http://web.resource.org/cc/PublicDomain">
		<permits  rdf:resource="http://web.resource.org/cc/Reproduction"></permits>
		<permits  rdf:resource="http://web.resource.org/cc/Distribution"></permits>
		<permits  rdf:resource="http://web.resource.org/cc/DerivativeWorks"></permits>
	</License>
</rdf:RDF>
</svg>
